<svg width="76" height="55" viewBox="0 0 76 55" fill="none" xmlns="http://www.w3.org/2000/svg">
<path d="M56.5 45.5L57.6447 46.4694L56.5 45.5ZM66 0L58.051 15.3888L75.3526 14.5784L66 0ZM1 45.5C0.44457 46.8934 0.444622 46.8934 0.444678 46.8934C0.444702 46.8934 0.444762 46.8935 0.44481 46.8935C0.444905 46.8935 0.445016 46.8936 0.445141 46.8936C0.445393 46.8937 0.445705 46.8938 0.446079 46.894C0.446825 46.8943 0.447815 46.8947 0.449047 46.8952C0.451512 46.8961 0.454946 46.8975 0.459342 46.8992C0.468133 46.9027 0.48077 46.9077 0.497192 46.9142C0.530034 46.9271 0.578014 46.9459 0.640627 46.9702C0.76585 47.0187 0.949627 47.0894 1.18793 47.1791C1.6645 47.3585 2.35937 47.6145 3.24028 47.9239L4.23424 45.0933C3.37611 44.792 2.70235 44.5437 2.24505 44.3715C2.01641 44.2854 1.84195 44.2184 1.72566 44.1733C1.66752 44.1507 1.62393 44.1336 1.59539 44.1224C1.58112 44.1168 1.57061 44.1126 1.56393 44.11C1.56059 44.1087 1.5582 44.1077 1.55679 44.1072C1.55608 44.1069 1.55561 44.1067 1.55538 44.1066C1.55527 44.1066 1.55522 44.1065 1.55522 44.1065C1.55523 44.1065 1.55525 44.1066 1.55528 44.1066C1.5553 44.1066 1.55534 44.1066 1.55534 44.1066C1.55539 44.1066 1.55543 44.1066 1 45.5ZM8.86216 49.7522C10.5774 50.2684 12.4948 50.8084 14.5552 51.3294L15.2907 48.421C13.2787 47.9122 11.4044 47.3843 9.72661 46.8795L8.86216 49.7522ZM20.3204 52.6384C22.2167 53.0181 24.1787 53.3583 26.1712 53.6335L26.5817 50.6617C24.656 50.3957 22.7539 50.0661 20.9092 49.6968L20.3204 52.6384ZM32.0982 54.2323C34.1065 54.3546 36.1165 54.3882 38.0926 54.3064L37.9687 51.309C36.1089 51.3859 34.2022 51.3549 32.2806 51.2378L32.0982 54.2323ZM44.1085 53.6476C46.1669 53.2617 48.1523 52.7 50.0116 51.9218L48.8532 49.1544C47.2196 49.8382 45.4419 50.3453 43.5557 50.699L44.1085 53.6476ZM55.3866 48.7072C56.1949 48.0336 56.9504 47.2893 57.6447 46.4694L55.3553 44.5306C54.7764 45.2142 54.145 45.8367 53.466 46.4026L55.3866 48.7072ZM57.6447 46.4694C58.3156 45.6772 58.9403 44.8366 59.5221 43.9567L57.0198 42.3019C56.4978 43.0912 55.9436 43.836 55.3553 44.5306L57.6447 46.4694ZM62.4332 38.4947C63.2272 36.6478 63.9023 34.7127 64.4762 32.7384L61.5954 31.901C61.0504 33.7761 60.4152 35.593 59.6771 37.3097L62.4332 38.4947ZM65.893 26.846C66.2846 24.8452 66.5945 22.8443 66.8388 20.8889L63.8619 20.5171C63.6251 22.4133 63.3255 24.3454 62.9489 26.2698L65.893 26.846ZM67.4111 14.9017C67.5574 12.7526 67.6349 10.7295 67.6692 8.90715L64.6697 8.85071C64.6362 10.6303 64.5606 12.6039 64.418 14.6979L67.4111 14.9017Z" fill="black" fill-opacity="0.5"/>
</svg>
