<svg width="72" height="44" viewBox="0 0 72 44" fill="none" xmlns="http://www.w3.org/2000/svg">
<path d="M46 42L45.9278 41.5052L46 42ZM69 0L66.1129 4.99979L71.8864 5.00021L69 0ZM1 38C0.879184 38.4852 0.879192 38.4852 0.879202 38.4852C0.879207 38.4852 0.879218 38.4852 0.879227 38.4852C0.879247 38.4852 0.879272 38.4852 0.879302 38.4852C0.879363 38.4852 0.879445 38.4852 0.879548 38.4853C0.879753 38.4853 0.880044 38.4854 0.880418 38.4855C0.881167 38.4857 0.882254 38.4859 0.883676 38.4863C0.88652 38.487 0.890708 38.488 0.896225 38.4894C0.90726 38.4921 0.923617 38.4962 0.945192 38.5014C0.988342 38.512 1.05237 38.5276 1.13646 38.5479C1.30465 38.5884 1.55309 38.6476 1.87529 38.7225L2.10169 37.7485C1.78225 37.6742 1.53645 37.6157 1.3708 37.5757C1.28797 37.5558 1.22519 37.5405 1.18325 37.5302C1.16228 37.5251 1.14653 37.5212 1.13609 37.5186C1.13087 37.5173 1.12698 37.5163 1.12443 37.5157C1.12315 37.5154 1.12221 37.5152 1.12161 37.515C1.12131 37.5149 1.12109 37.5149 1.12096 37.5149C1.12089 37.5148 1.12085 37.5148 1.12082 37.5148C1.12081 37.5148 1.12081 37.5148 1.1208 37.5148C1.1208 37.5148 1.12081 37.5148 1.12081 37.5148C1.12081 37.5148 1.12082 37.5148 1 38ZM3.89695 39.1764C4.4961 39.3068 5.17459 39.4509 5.92337 39.6048L6.12471 38.6253C5.37986 38.4722 4.70511 38.3288 4.1095 38.1993L3.89695 39.1764ZM7.95704 40.0115C8.60095 40.1367 9.27996 40.2655 9.99026 40.396L10.171 39.4125C9.46424 39.2826 8.78862 39.1545 8.14794 39.0299L7.95704 40.0115ZM12.03 40.76C12.6893 40.8741 13.3692 40.9884 14.0674 41.1017L14.2276 40.1146C13.533 40.0019 12.8565 39.8882 12.2006 39.7746L12.03 40.76ZM16.1137 41.4225C16.7848 41.524 17.4693 41.6238 18.1653 41.721L18.3037 40.7306C17.6115 40.6339 16.9307 40.5347 16.2632 40.4338L16.1137 41.4225ZM20.2169 41.9954C20.8934 42.0818 21.5785 42.1652 22.2707 42.2448L22.385 41.2514C21.6971 41.1722 21.0161 41.0894 20.3436 41.0035L20.2169 41.9954ZM24.329 42.4681C25.0117 42.5375 25.6996 42.6027 26.3912 42.6632L26.4783 41.667C25.7915 41.607 25.1083 41.5422 24.4302 41.4732L24.329 42.4681ZM28.4568 42.8281C29.1445 42.8776 29.8345 42.9218 30.5254 42.9602L30.5808 41.9617C29.8956 41.9237 29.2111 41.8798 28.5287 41.8306L28.4568 42.8281ZM32.5966 43.0565C33.2886 43.0824 33.9802 43.1017 34.67 43.1137L34.6874 42.1139C34.0046 42.1019 33.3196 42.0828 32.634 42.0572L32.5966 43.0565ZM36.7446 43.1276C37.44 43.1245 38.1322 43.1133 38.8197 43.0933L38.7907 42.0938C38.1118 42.1135 37.4278 42.1246 36.7402 42.1276L36.7446 43.1276ZM40.8967 43.0048C41.5957 42.9651 42.2882 42.9153 42.9726 42.8547L42.8844 41.8586C42.2111 41.9182 41.5291 41.9673 40.84 42.0064L40.8967 43.0048ZM45.0444 42.6341C45.3896 42.5908 45.7323 42.5444 46.0722 42.4948L45.9278 41.5052C45.5947 41.5539 45.2587 41.5994 44.92 41.6419L45.0444 42.6341ZM46.0722 42.4948C46.4179 42.4443 46.7585 42.3866 47.0943 42.3218L46.905 41.3399C46.5842 41.4018 46.2585 41.457 45.9278 41.5052L46.0722 42.4948ZM49.0829 41.8412C49.7492 41.6462 50.3941 41.4219 51.0184 41.1703L50.6446 40.2428C50.0507 40.4821 49.4368 40.6957 48.8021 40.8814L49.0829 41.8412ZM52.8789 40.3097C53.4894 39.9892 54.0776 39.6411 54.6442 39.2678L54.094 38.4327C53.5545 38.7882 52.9948 39.1195 52.4141 39.4243L52.8789 40.3097ZM56.2984 38.0598C56.8309 37.6309 57.3417 37.1786 57.8317 36.7054L57.137 35.986C56.6678 36.4392 56.1794 36.8716 55.6711 37.281L56.2984 38.0598ZM59.2401 35.2259C59.6879 34.7153 60.1159 34.1866 60.525 33.6421L59.7255 33.0414C59.3308 33.5667 58.9187 34.0758 58.4883 34.5665L59.2401 35.2259ZM61.6909 31.973C62.0595 31.4058 62.4105 30.8255 62.7448 30.2346L61.8745 29.7422C61.5497 30.3162 61.2092 30.8789 60.8524 31.4281L61.6909 31.973ZM63.6945 28.4404C63.9943 27.8349 64.2785 27.2211 64.548 26.6013L63.631 26.2026C63.3677 26.808 63.0904 27.4068 62.7983 27.9967L63.6945 28.4404ZM65.3131 24.7262C65.5548 24.0945 65.7825 23.459 65.997 22.822L65.0493 22.5029C64.8388 23.1277 64.6157 23.7505 64.3791 24.3689L65.3131 24.7262ZM66.6061 20.8943C66.7986 20.2439 66.9784 19.5943 67.1462 18.9477L66.1783 18.6965C66.0132 19.3326 65.8364 19.9714 65.6472 20.6104L66.6061 20.8943ZM67.6224 16.9857C67.773 16.3207 67.9116 15.6617 68.039 15.0114L67.0577 14.819C66.932 15.4602 66.7955 16.1098 66.6471 16.7648L67.6224 16.9857ZM68.3997 13.0276C68.5135 12.35 68.6156 11.6856 68.7072 11.0379L67.7171 10.8978C67.6266 11.5374 67.5258 12.1933 67.4135 12.8621L68.3997 13.0276ZM68.9641 9.04414C69.0456 8.3441 69.1148 7.67084 69.1737 7.02957L68.1779 6.93811C68.1197 7.57175 68.0513 8.23694 67.9708 8.92854L68.9641 9.04414ZM69.3335 5.02527C69.3837 4.28245 69.4194 3.60485 69.4446 3.00431L68.4455 2.96238C68.4206 3.55497 68.3854 4.22405 68.3358 4.95786L69.3335 5.02527Z" fill="black" fill-opacity="0.5"/>
</svg>
